HIERARCHY
ROOT Hips
{
    OFFSET   0.000000   0.000000   0.000000
    CHANNELS 6 Xposition Yposition Zposition Zrotation Xrotation Yrotation
    JOINT Chest
    {
        OFFSET   0.000000   8.007230   0.000000
        CHANNELS 3 Zrotation Xrotation Yrotation
        JOINT Chest2
        {
            OFFSET   0.000000  22.077100   0.000000
            CHANNELS 3 Zrotation Xrotation Yrotation
            JOINT Neck
            {
                OFFSET   0.000000  23.254800  -0.000021
                CHANNELS 3 Zrotation Xrotation Yrotation
                JOINT Head
                {
                    OFFSET   0.000000  14.370000   1.956610
                    CHANNELS 3 Zrotation Xrotation Yrotation
                    End Site
                    {
                        OFFSET   0.000000  19.566000   0.000000
                    }
                }
            }
            JOINT LeftCollar
            {
                OFFSET   3.911900  19.017000  -0.467063
                CHANNELS 3 Zrotation Xrotation Yrotation
                JOINT LeftShoulder
                {
                    OFFSET  10.383700   0.000000   0.000000
                    CHANNELS 3 Zrotation Xrotation Yrotation
                    JOINT LeftElbow
                    {
                        OFFSET  26.662100   0.001529   0.000325
                        CHANNELS 3 Zrotation Xrotation Yrotation
                        JOINT LeftWrist
                        {
                            OFFSET  28.869000  -0.000011  -0.000096
                            CHANNELS 3 Zrotation Xrotation Yrotation
                            JOINT LeftFinger0
                            {
                                OFFSET   2.044650  -2.323460   3.252850
                                CHANNELS 3 Zrotation Xrotation Yrotation
                                JOINT LeftFinger01
                                {
                                    OFFSET   3.088130   0.000000   0.000000
                                    CHANNELS 3 Zrotation Xrotation Yrotation
                                    JOINT LeftFinger02
                                    {
                                        OFFSET   2.639460   0.000000   0.000000
                                        CHANNELS 3 Zrotation Xrotation Yrotation
                                        End Site
                                        {
                                            OFFSET   2.582190   0.000000   0.000000
                                        }
                                    }
                                }
                            }
                            JOINT LeftFinger1
                            {
                                OFFSET   8.364480   0.000000   3.252850
                                CHANNELS 3 Zrotation Xrotation Yrotation
                                JOINT LeftFinger11
                                {
                                    OFFSET   4.646930   0.000000   0.000000
                                    CHANNELS 3 Zrotation Xrotation Yrotation
                                    JOINT LeftFinger12
                                    {
                                        OFFSET   2.323460   0.000000   0.000000
                                        CHANNELS 3 Zrotation Xrotation Yrotation
                                        End Site
                                        {
                                            OFFSET   2.273050   0.000000   0.000000
                                        }
                                    }
                                }
                            }
                            JOINT LeftFinger2
                            {
                                OFFSET   8.364480   0.000016   1.078090
                                CHANNELS 3 Zrotation Xrotation Yrotation
                                JOINT LeftFinger21
                                {
                                    OFFSET   5.111620   0.000000   0.000000
                                    CHANNELS 3 Zrotation Xrotation Yrotation
                                    JOINT LeftFinger22
                                    {
                                        OFFSET   2.788160   0.000017   0.000000
                                        CHANNELS 3 Zrotation Xrotation Yrotation
                                        End Site
                                        {
                                            OFFSET   2.727660   0.000000   0.000000
                                        }
                                    }
                                }
                            }
                            JOINT LeftFinger3
                            {
                                OFFSET   7.899780   0.000015  -1.078090
                                CHANNELS 3 Zrotation Xrotation Yrotation
                                JOINT LeftFinger31
                                {
                                    OFFSET   4.646920   0.000000   0.000000
                                    CHANNELS 3 Zrotation Xrotation Yrotation
                                    JOINT LeftFinger32
                                    {
                                        OFFSET   2.323470   0.000000   0.000000
                                        CHANNELS 3 Zrotation Xrotation Yrotation
                                        End Site
                                        {
                                            OFFSET   2.273050   0.000000   0.000000
                                        }
                                    }
                                }
                            }
                            JOINT LeftFinger4
                            {
                                OFFSET   7.435090   0.000000  -3.252850
                                CHANNELS 3 Zrotation Xrotation Yrotation
                                JOINT LeftFinger41
                                {
                                    OFFSET   3.717550   0.000000   0.000000
                                    CHANNELS 3 Zrotation Xrotation Yrotation
                                    JOINT LeftFinger42
                                    {
                                        OFFSET   1.858760   0.000000   0.000000
                                        CHANNELS 3 Zrotation Xrotation Yrotation
                                        End Site
                                        {
                                            OFFSET   1.818440   0.000000   0.000000
                                        }
                                    }
                                }
                            }
                        }
                    }
                }
            }
            JOINT RightCollar
            {
                OFFSET  -3.911900  19.017000  -0.467062
                CHANNELS 3 Zrotation Xrotation Yrotation
                JOINT RightShoulder
                {
                    OFFSET -10.383700   0.000015   0.000000
                    CHANNELS 3 Zrotation Xrotation Yrotation
                    JOINT RightElbow
                    {
                        OFFSET -26.662100   0.001341   0.000385
                        CHANNELS 3 Zrotation Xrotation Yrotation
                        JOINT RightWrist
                        {
                            OFFSET -28.869000   0.000025  -0.000080
                            CHANNELS 3 Zrotation Xrotation Yrotation
                            JOINT RightFinger0
                            {
                                OFFSET  -2.044650  -2.323490   3.252850
                                CHANNELS 3 Zrotation Xrotation Yrotation
                                JOINT RightFinger01
                                {
                                    OFFSET  -3.088130   0.000000   0.000000
                                    CHANNELS 3 Zrotation Xrotation Yrotation
                                    JOINT RightFinger02
                                    {
                                        OFFSET  -2.639460   0.000000   0.000000
                                        CHANNELS 3 Zrotation Xrotation Yrotation
                                        End Site
                                        {
                                            OFFSET  -2.582190   0.000000   0.000000
                                        }
                                    }
                                }
                            }
                            JOINT RightFinger1
                            {
                                OFFSET  -8.364480   0.000000   3.252850
                                CHANNELS 3 Zrotation Xrotation Yrotation
                                JOINT RightFinger11
                                {
                                    OFFSET  -4.646930   0.000000   0.000000
                                    CHANNELS 3 Zrotation Xrotation Yrotation
                                    JOINT RightFinger12
                                    {
                                        OFFSET  -2.323470   0.000000   0.000000
                                        CHANNELS 3 Zrotation Xrotation Yrotation
                                        End Site
                                        {
                                            OFFSET  -2.273050   0.000000   0.000000
                                        }
                                    }
                                }
                            }
                            JOINT RightFinger2
                            {
                                OFFSET  -8.364480   0.000000   1.078090
                                CHANNELS 3 Zrotation Xrotation Yrotation
                                JOINT RightFinger21
                                {
                                    OFFSET  -5.111610   0.000000   0.000000
                                    CHANNELS 3 Zrotation Xrotation Yrotation
                                    JOINT RightFinger22
                                    {
                                        OFFSET  -2.788160   0.000000   0.000000
                                        CHANNELS 3 Zrotation Xrotation Yrotation
                                        End Site
                                        {
                                            OFFSET  -2.727660   0.000000   0.000000
                                        }
                                    }
                                }
                            }
                            JOINT RightFinger3
                            {
                                OFFSET  -7.899780   0.000000  -1.078090
                                CHANNELS 3 Zrotation Xrotation Yrotation
                                JOINT RightFinger31
                                {
                                    OFFSET  -4.646920   0.000000   0.000000
                                    CHANNELS 3 Zrotation Xrotation Yrotation
                                    JOINT RightFinger32
                                    {
                                        OFFSET  -2.323470   0.000000   0.000000
                                        CHANNELS 3 Zrotation Xrotation Yrotation
                                        End Site
                                        {
                                            OFFSET  -2.273050   0.000000   0.000000
                                        }
                                    }
                                }
                            }
                            JOINT RightFinger4
                            {
                                OFFSET  -7.435090   0.000000  -3.252850
                                CHANNELS 3 Zrotation Xrotation Yrotation
                                JOINT RightFinger41
                                {
                                    OFFSET  -3.717550   0.000000   0.000000
                                    CHANNELS 3 Zrotation Xrotation Yrotation
                                    JOINT RightFinger42
                                    {
                                        OFFSET  -1.858770   0.000000   0.000000
                                        CHANNELS 3 Zrotation Xrotation Yrotation
                                        End Site
                                        {
                                            OFFSET  -1.818440   0.000000   0.000000
                                        }
                                    }
                                }
                            }
                        }
                    }
                }
            }
        }
    }
    JOINT LeftHip
    {
        OFFSET   9.783010   0.000000   0.000000
        CHANNELS 3 Zrotation Xrotation Yrotation
        JOINT LeftKnee
        {
            OFFSET   0.000070 -41.789100   0.000028
            CHANNELS 3 Zrotation Xrotation Yrotation
            JOINT LeftAnkle
            {
                OFFSET   0.000087 -41.133200  -0.000100
                CHANNELS 3 Zrotation Xrotation Yrotation
                JOINT LeftToe
                {
                    OFFSET   0.000000  -6.358960  14.674500
                    CHANNELS 3 Zrotation Xrotation Yrotation
                    End Site
                    {
                        OFFSET   0.000000   0.000000   3.913200
                    }
                }
            }
        }
    }
    JOINT RightHip
    {
        OFFSET  -9.783020   0.000000   0.000000
        CHANNELS 3 Zrotation Xrotation Yrotation
        JOINT RightKnee
        {
            OFFSET   0.000044 -41.789100  -0.000870
            CHANNELS 3 Zrotation Xrotation Yrotation
            JOINT RightAnkle
            {
                OFFSET  -0.000090 -41.133200  -0.000245
                CHANNELS 3 Zrotation Xrotation Yrotation
                JOINT RightToe
                {
                    OFFSET   0.000000  -6.358960  14.674500
                    CHANNELS 3 Zrotation Xrotation Yrotation
                    End Site
                    {
                        OFFSET   0.000000   0.000000   3.913200
                    }
                }
            }
        }
    }
}
MOTION
Frames: 5
Frame Time:   0.016667
 -0.540013  89.572600  -2.898080  -1.911180  -3.188780   0.191987   0.705109   3.886390   0.150580   1.404820   7.774330   0.253962  -0.709662   0.066153   0.002385  -1.160680   0.134236   1.940440  -4.216140   2.365240   6.916380 -78.639800   2.896940  -0.769700  -2.866040  -5.032960 -18.735000   7.313070  -4.623270  -1.379730  38.420800  25.781000 -47.337400 -28.853800  -0.001403   0.008696  -9.426900  -0.001357   0.004198 -33.878600   0.234568  -0.353059 -27.734400   0.004836   0.004027 -19.414100   0.004133  -0.001046 -28.493800  -3.902800   7.146510 -39.875100   0.013494   0.000787 -26.556800   0.013350   0.005418 -27.382400  -5.093570   9.722720 -30.908900   0.010176   0.000152 -20.585300   0.009976  -0.004240 -25.786700  -5.910040  12.020000 -39.639300   0.011053  -0.014534 -26.399700   0.007539   0.001351   6.611810   4.477470   7.004600  73.446100 -12.214900   0.014614   3.713180  -7.238040  20.034300 -15.512400   7.003140   1.657380 -42.821800  35.434200  74.619800  24.330600   0.006765  -0.002970   7.165280   0.000163   0.002296  30.538600   2.068890   3.499550  25.036100   0.005767   0.000477  17.525300   0.003378  -0.001090  28.107600  -0.386531  -0.724570  32.726200   0.015986  -0.001948  21.795600   0.007772  -0.004761  28.178700  -1.249280  -2.330510  33.420700   0.001370  -0.007533  22.258200   0.000162  -0.002006  30.187700  -1.329300  -2.285270  45.317700   0.000218  -0.001290  30.181600  -0.000338  -0.000844   3.408770   4.400210  -1.273680  -0.001969   0.388293  12.255900  -1.439660  -2.089050  -0.580581   0.000000   0.000000   0.000000   1.214590   3.023100  -6.198990  -0.589519   3.926950 -15.301100   1.502780  -3.858180   2.733370   0.000000   0.000000   0.000000
 -0.544753  89.573600  -2.901670  -1.917280  -3.235620   0.174679   0.716072   3.922950   0.178599   1.424890   7.847810   0.308996  -0.709719   0.070695   0.002397  -1.160580   0.143374   1.737930  -4.279130   2.432390   6.956770 -78.876600   2.435990  -0.836268  -3.092860  -5.882990 -19.315300   7.057390  -4.866230  -1.172720  38.661900  26.721500 -47.679300 -29.064800   0.005430   0.008005  -9.532410   0.005277  -0.016427 -33.755100  -0.182663   0.272275 -27.609300  -0.000911   0.004076 -19.326500   0.000236  -0.001111 -28.468400  -3.922900   7.190500 -39.418600   0.009446   0.000724 -26.252800   0.009010   0.005303 -27.291300  -5.406550  10.365000 -30.585300   0.004353   0.000188 -20.369800   0.005272  -0.004234 -25.609600  -6.161920  12.627700 -39.417100  -0.000050  -0.014556 -26.251700   0.001801  -0.003939   6.610660   4.491360   6.952930  73.475700 -12.454900  -0.103420   3.735410  -7.101370  20.756900 -15.532500   6.965420   1.763340 -42.799200  34.796200  74.102100  23.880900   0.006800  -0.002918   6.940410   0.000155   0.002229  30.521100   2.158940   3.650980  25.027900   0.005770   0.000448  17.519600   0.003372  -0.001100  28.094200  -0.298928  -0.561599  32.616500   0.016020  -0.002005  21.722500   0.007730  -0.005351  28.174300  -1.144320  -2.134590  33.360200   0.001170  -0.007599  22.217900   0.000039  -0.001953  30.157500  -1.218120  -2.093570  45.267000   0.000107  -0.001252  30.147800  -0.000387  -0.000786   3.423010   4.462490  -1.273770  -0.007206   0.368661  12.272000  -1.439890  -2.085590  -0.580374   0.000000   0.000000   0.000000   1.230400   3.080610  -6.199210  -0.592589   3.920750 -15.291900   1.495580  -3.858150   2.736570   0.000000   0.000000   0.000000
 -0.554234  89.575800  -2.907910  -1.926800  -3.322820   0.146125   0.735738   3.990990   0.226499   1.460950   7.984520   0.402933  -0.709823   0.077694   0.002431  -1.160410   0.157448   1.288980  -4.393090   2.556250   7.027100 -79.329600   1.603580  -0.944512  -3.453980  -7.355650 -20.448600   6.610750  -5.546930  -0.966261  38.916100  27.658100 -48.043900 -29.275900   0.012262   0.006942  -9.637930   0.011912  -0.037052 -33.622500  -0.599829   0.897652 -27.484200  -0.008705   0.004179 -19.239000  -0.005051  -0.001219 -28.432700  -3.951330   7.252760 -38.772500   0.003551   0.000661 -25.822500   0.002856   0.005111 -27.193000  -5.717540  11.008300 -30.156800  -0.003938   0.000263 -20.084400  -0.001337  -0.004226 -25.427000  -6.411870  13.236200 -39.194800  -0.014257  -0.014608 -26.103800  -0.006037  -0.009229   6.593090   4.522170   6.850960  73.544200 -12.921600  -0.308788   3.748000  -6.883490  22.126200 -15.575200   6.702580   2.126010 -42.773900  33.796400  73.338500  23.025100   0.006834  -0.002806   6.512520   0.000147   0.002115  30.454200   2.328080   3.943730  24.978500   0.005776   0.000383  17.485000   0.003363  -0.001125  28.058700  -0.146394  -0.277815  32.356000   0.016055  -0.002124  21.549100   0.007661  -0.006564  28.173800  -0.969484  -1.808450  33.299800   0.000835  -0.007736  22.177600  -0.000166  -0.001864  30.131400  -1.033000  -1.774180  45.216300  -0.000079  -0.001188  30.114100  -0.000471  -0.000688   3.446150   4.575510  -1.273940  -0.015778   0.336022  12.299700  -1.441710  -2.080290  -0.580072   0.000000   0.000000   0.000000   1.258930   3.178160  -6.199680  -0.600360   3.914670 -15.275900   1.482720  -3.858110   2.743830   0.000000   0.000000  -0.000000
 -0.563905  89.578800  -2.913650  -1.933110  -3.411200   0.122369   0.756295   4.060850   0.267876   1.499180   8.124840   0.483654  -0.709941   0.079937   0.002493  -1.161870   0.161960   0.719472  -4.513610   2.686040   7.095220 -79.820300   0.786375  -1.044780  -3.692950  -8.709100 -21.662600   6.176970  -6.699500  -1.037390  39.056100  27.197500 -48.241900 -28.666100   0.011913   0.006382  -9.333050   0.011798  -0.036883 -33.664600  -0.354434   0.538178 -27.510400  -0.011146   0.004320 -19.257300  -0.006717  -0.001324 -28.419200  -3.962760   7.277820 -38.512700   0.000212   0.000840 -25.649400  -0.000059   0.004917 -27.249400  -5.401950  10.386500 -30.034500  -0.007983   0.000367 -20.002900  -0.004252  -0.004223 -25.537200  -6.195960  12.762500 -39.266200  -0.017878  -0.014685 -26.151300  -0.008695  -0.009192   6.542600   4.563570   6.737090  73.630100 -13.430100  -0.495226   3.736290  -6.715430  23.557600 -15.444100   6.036400   2.772950 -42.738700  33.080000  72.849300  22.111400   0.006763  -0.002666   6.055670   0.000150   0.001998  30.318100   2.507010   4.263000  24.874600   0.005782   0.000295  17.412300   0.003355  -0.001164  28.008700  -0.012070  -0.029385  32.001800   0.015909  -0.002284  21.313200   0.007592  -0.008062  28.187200  -0.823182  -1.535850  33.365700   0.000501  -0.007923  22.221500  -0.000372  -0.001775  30.174900  -0.878328  -1.506650  45.273900  -0.000261  -0.001123  30.152400  -0.000559  -0.000591   3.463850   4.685650  -1.279500  -0.022614   0.308607  12.324700  -1.446370  -2.076930  -0.579897  -0.000000   0.000000   0.000000   1.287930   3.257690  -6.205490  -0.616233   3.926630 -15.260300   1.469940  -3.858130   2.754640  -0.000000   0.000000   0.000000
 -0.577942  89.581700  -2.919330  -1.938470  -3.511670   0.102033   0.774852   4.138230   0.309610   1.533240   8.280230   0.565133  -0.710046   0.085810   0.002565  -1.164420   0.173680  -0.031165  -4.623630   2.819000   7.155920 -80.363700  -0.074745  -1.103390  -3.906400 -10.016100 -23.142900   5.765990  -8.125360  -1.243970  39.165200  26.140200 -48.275000 -27.642200   0.010835   0.005723  -8.821090   0.011002  -0.035701 -33.770500   0.025173  -0.021367 -27.595800  -0.011540   0.004459 -19.317000  -0.006992  -0.001387 -28.411300  -3.969440   7.292610 -38.358500  -0.001280   0.001305 -25.546700  -0.001160   0.004801 -27.324500  -4.896060   9.397640 -30.017000  -0.009561   0.000471 -19.991300  -0.005262  -0.004219 -25.735500  -5.860180  12.001200 -39.453300  -0.018396  -0.014765 -26.275900  -0.009254  -0.008932   6.480710   4.612930   6.602080  73.759300 -14.028500  -0.683811   3.653640  -6.582430  25.208800 -14.975100   5.097760   3.706550 -42.677300  32.585600  72.440100  21.082300   0.006626  -0.002495   5.541120   0.000158   0.001926  30.093800   2.701480   4.630110  24.706600   0.005785   0.000201  17.294600   0.003350  -0.001208  27.933900   0.132862   0.241960  31.520200   0.015636  -0.002443  20.992400   0.007551  -0.009741  28.200800  -0.690527  -1.288630  33.461200   0.000300  -0.008111  22.285100  -0.000496  -0.001722  30.248300  -0.737986  -1.263650  45.382000  -0.000371  -0.001083  30.224400  -0.000612  -0.000534   3.481200   4.806070  -1.289450  -0.028715   0.284234  12.348000  -1.454030  -2.074360  -0.579816   0.000000   0.000000   0.000000   1.317160   3.343450  -6.214590  -0.634371   3.948140 -15.246600   1.457480  -3.858500   2.765870  -0.000000   0.000000  -0.000000
